<?xml version="1.0" encoding="UTF-8" standalone="no"?>
<!-- Created with Inkscape (http://www.inkscape.org/) -->

<svg
   width="64"
   height="64"
   viewBox="0 0 16.933334 16.933334"
   version="1.1"
   id="svg5"
   inkscape:version="1.1.1 (3bf5ae0d25, 2021-09-20, custom)"
   sodipodi:docname="icon.svg"
   xmlns:inkscape="http://www.inkscape.org/namespaces/inkscape"
   xmlns:sodipodi="http://sodipodi.sourceforge.net/DTD/sodipodi-0.dtd"
   xmlns="http://www.w3.org/2000/svg"
   xmlns:svg="http://www.w3.org/2000/svg">
  <sodipodi:namedview
     id="namedview7"
     pagecolor="#505050"
     bordercolor="#ffffff"
     borderopacity="1"
     inkscape:pageshadow="0"
     inkscape:pageopacity="0"
     inkscape:pagecheckerboard="1"
     inkscape:document-units="px"
     showgrid="true"
     units="px"
     width="64px"
     inkscape:zoom="5.9508979"
     inkscape:cx="12.099015"
     inkscape:cy="40.918195"
     inkscape:window-width="1900"
     inkscape:window-height="1032"
     inkscape:window-x="10"
     inkscape:window-y="38"
     inkscape:window-maximized="1"
     inkscape:current-layer="layer1"
     guidecolor="#55ffff"
     guideopacity="1">
    <inkscape:grid
       type="xygrid"
       id="grid869"
       color="#ffffff"
       opacity="0.13333333"
       empcolor="#ffffff"
       empopacity="0.53333333"
       spacingx="1.0583334"
       spacingy="1.0583334"
       empspacing="4" />
    <sodipodi:guide
       position="0,16.933334"
       orientation="0,64"
       id="guide871" />
    <sodipodi:guide
       position="16.933334,16.933334"
       orientation="64,0"
       id="guide873" />
    <sodipodi:guide
       position="16.933334,0"
       orientation="0,-64"
       id="guide875" />
    <sodipodi:guide
       position="0,0"
       orientation="-64,0"
       id="guide877" />
  </sodipodi:namedview>
  <defs
     id="defs2" />
  <g
     inkscape:label="Layer 1"
     inkscape:groupmode="layer"
     id="layer1">
    <path
       id="path894"
       style="fill:#72dda8;fill-opacity:1;stroke:none;stroke-width:3.99999;stroke-linecap:round;stroke-linejoin:round;paint-order:markers stroke fill"
       d="M 32,0 C 30.892,0 30,0.76512942 30,1.7148438 V 6.078125 C 24.625643,6.4891827 19.703402,8.5423268 15.734375,11.734375 L 12.242188,8.2421875 C 11.570638,7.5706381 10.398709,7.659885 9.6152344,8.4433594 8.83176,9.2268337 8.7425131,10.398763 9.4140625,11.070312 l 3.4023435,3.402344 C 9.0081827,18.637006 6.5339402,24.040463 6.078125,30 H 2 c -1.10800002,0 -2,0.892 -2,2 0,1.108 0.89199998,2 2,2 h 4.078125 c 0.4553533,5.95933 2.9287478,11.362818 6.736328,15.527344 l -3.4003905,3.402344 c -0.6715494,0.671549 -0.5823025,1.843478 0.2011719,2.626953 0.7834746,0.783474 1.9554036,0.872721 2.6269536,0.201171 l 3.492187,-3.492187 C 19.703491,55.457909 24.625411,57.512753 30,57.923828 V 62 c 0,1.108 0.892,2 2,2 1.108,0 2,-0.892 2,-2 v -4.076172 c 5.960301,-0.455427 11.364497,-2.929645 15.529297,-6.738281 l 2.429687,2.431641 c 0.67155,0.671548 1.843479,0.580349 2.626954,-0.203126 0.783473,-0.783473 0.872721,-1.955403 0.201171,-2.626953 L 52.267578,48.267578 C 55.459807,44.298151 57.51313,39.374911 57.923828,34 H 62 c 1.108,0 2,-0.892 2,-2 0,-1.108 -0.892,-2 -2,-2 H 57.923828 C 57.512753,24.625411 55.457909,19.703491 52.265625,15.734375 l 2.521484,-2.521484 c 0.67155,-0.67155 0.582302,-1.84348 -0.201171,-2.626953 -0.440705,-0.440705 -1.005028,-0.6625658 -1.533204,-0.6523442 -0.410803,0.00795 -0.799947,0.1554172 -1.09375,0.4492182 l -2.43164,2.431641 C 45.362818,9.0068728 39.95933,6.5334783 34,6.078125 V 1.7148438 C 34,0.76512942 33.108,0 32,0 Z m -2,10.09375 v 12.107422 c -1.02673,0.210778 -1.994992,0.584749 -2.882812,1.085937 -0.0747,-0.18387 -0.184255,-0.354176 -0.330079,-0.5 L 18.566406,14.566406 C 21.784617,12.085683 25.71271,10.478155 30,10.09375 Z m 4,0 c 4.87366,0.436744 9.282544,2.453323 12.712891,5.537109 l -8.53125,8.53125 C 36.977962,23.209795 35.551945,22.532213 34,22.210938 Z m -18.369141,7.193359 8.328125,8.330079 c 0.0681,0.0681 0.141291,0.127178 0.21875,0.179687 -0.963925,1.211209 -1.656346,2.645347 -1.976562,4.212891 C 22.135025,30.003217 22.067926,30 22,30 H 10.09375 c 0.436942,-4.87324 2.453547,-9.282793 5.537109,-12.712891 z m 33.802735,1.279297 C 51.914572,21.784726 53.521822,25.71245 53.90625,30 H 42 c -0.0666,0 -0.132371,0.0035 -0.197266,0.0098 -0.202095,-0.989112 -0.552796,-1.925739 -1.02539,-2.78711 z M 32,25.998047 c 3.337398,0 6.001953,2.664555 6.001953,6.001953 0,3.337398 -2.664555,6.001953 -6.001953,6.001953 -3.337398,0 -6.001953,-2.664555 -6.001953,-6.001953 0,-3.337398 2.664555,-6.001953 6.001953,-6.001953 z M 32,28 a 3.9999999,3.9999999 0 0 0 -4,4 3.9999999,3.9999999 0 0 0 4,4 3.9999999,3.9999999 0 0 0 4,-4 3.9999999,3.9999999 0 0 0 -4,-4 z m -9.794922,5.990234 c 6.49e-4,-6.5e-5 0.0013,6.6e-5 0.002,0 0.320337,1.566279 1.007633,3.00226 1.970703,4.212891 -0.07746,0.05251 -0.150645,0.111583 -0.21875,0.179687 l -8.328125,8.330079 C 12.547073,43.282544 10.530494,38.87366 10.09375,34 H 22 c 0.06925,0 0.137681,-0.003 0.205078,-0.0098 z m 19.589844,0 C 41.862319,33.997038 41.93075,34 42,34 h 11.90625 c -0.384251,4.287886 -1.989596,8.216995 -4.470703,11.435547 l -8.662109,-8.662109 c 0.471704,-0.860367 0.819488,-1.795496 1.021484,-2.783204 z m -3.613281,5.847657 8.53125,8.533203 C 43.282575,51.454771 38.873559,53.469515 34,53.90625 V 42 c 0,-0.0666 -0.0035,-0.132371 -0.0098,-0.197266 1.559183,-0.318171 2.983979,-1.009216 4.191407,-1.964843 z m -11.064453,0.873047 c 0.891051,0.503256 1.861718,0.881243 2.892578,1.091796 C 30.003466,41.867629 30,41.933398 30,42 V 53.90625 C 25.71245,53.521822 21.784726,51.914572 18.566406,49.433594 l 8.220703,-8.220703 c 0.146269,-0.146269 0.25537,-0.317435 0.330079,-0.501953 z"
       transform="scale(0.26458334)" />
  </g>
</svg>
